# Small low-poly tree for ASG4 OBJ loading requirement.
v 0.0 2.2 0.0
v -0.9 0.8 0.9
v 0.9 0.8 0.9
v 0.9 0.8 -0.9
v -0.9 0.8 -0.9
v 0.0 3.3 0.0
v -0.65 1.75 0.65
v 0.65 1.75 0.65
v 0.65 1.75 -0.65
v -0.65 1.75 -0.65
v -0.18 0.0 -0.18
v 0.18 0.0 -0.18
v 0.18 0.9 -0.18
v -0.18 0.9 -0.18
v -0.18 0.0 0.18
v 0.18 0.0 0.18
v 0.18 0.9 0.18
v -0.18 0.9 0.18
f 1 2 3
f 1 3 4
f 1 4 5
f 1 5 2
f 6 7 8
f 6 8 9
f 6 9 10
f 6 10 7
f 11 12 13 14
f 15 18 17 16
f 11 15 16 12
f 14 13 17 18
f 12 16 17 13
f 11 14 18 15
